<?xml version="1.0" encoding="utf-8"?>
<!-- Generator: Adobe Illustrator 16.0.0, SVG Export Plug-In . SVG Version: 6.00 Build 0)  -->
<!DOCTYPE svg PUBLIC "-//W3C//DTD SVG 1.1//EN" "http://www.w3.org/Graphics/SVG/1.1/DTD/svg11.dtd">
<svg version="1.1" id="Capa_1" xmlns="http://www.w3.org/2000/svg" xmlns:xlink="http://www.w3.org/1999/xlink" x="0px" y="0px"
	 width="512px" height="512px" viewBox="0 0 512 512" enable-background="new 0 0 512 512" xml:space="preserve">
<g>
	<path fill="#E48251" d="M502.467,9.533l-79.569,95.484l-82.546-98.46C393.983-3.087,449.147-2.092,502.467,9.533z"/>
	<path fill="#E48251" d="M301.53,15.477c-66.026,18.541-128.353,53.798-180.304,105.749
		C69.275,173.177,34.018,235.503,15.461,301.53c0.016,0,97.513,113.411,97.513,113.411l301.967-301.967L301.53,15.477z"/>
	<path fill="#E48251" d="M105.017,422.897l-95.483,79.57c-11.625-53.319-12.62-108.485-2.977-162.115L105.017,422.897z"/>
	<path fill="#E48251" d="M505.443,171.648l-90.502-74.588l87.526-87.527C514.092,62.853,515.086,118.019,505.443,171.648z"/>
	<path fill="#E48251" d="M97.06,414.941l74.589,90.502c-53.63,9.644-108.796,8.648-162.115-2.977L97.06,414.941z"/>
	<path fill="#E48251" d="M496.538,210.471c-0.016,0-89.556-105.454-89.556-105.454L105.017,406.984l105.454,89.54
		c66.027-18.541,128.354-53.797,180.305-105.749C442.726,338.823,477.984,276.497,496.538,210.471z"/>
	<path fill="#FFFFFF" d="M297.774,261.967c3.297,3.297,8.64,3.297,11.936,0c3.295-3.297,3.295-8.639,0-11.936l-17.901-17.902
		l35.805-35.806l17.902,17.902c3.297,3.296,8.64,3.296,11.937,0c3.294-3.297,3.294-8.64,0-11.936l-17.902-17.902l1.989-1.99
		c3.296-3.297,3.295-8.639,0-11.936c-3.297-3.295-8.64-3.295-11.936,0l-1.99,1.989l-17.901-17.902
		c-3.298-3.294-8.641-3.294-11.937,0c-3.296,3.297-3.296,8.64,0,11.936l17.902,17.902l-35.806,35.805l-17.901-17.902
		c-3.298-3.295-8.641-3.295-11.937,0c-3.296,3.297-3.296,8.64,0,11.936l17.902,17.902l-35.806,35.805l-17.901-17.902
		c-3.298-3.295-8.641-3.295-11.937,0c-3.296,3.297-3.296,8.64,0,11.936l17.902,17.902l-35.806,35.805l-17.902-17.902
		c-3.297-3.295-8.64-3.295-11.936,0c-3.296,3.298-3.296,8.641,0,11.937l17.902,17.901l-1.989,1.99
		c-3.296,3.297-3.295,8.639,0,11.936c1.648,1.647,3.809,2.472,5.968,2.472c2.16,0,4.32-0.824,5.969-2.472l1.989-1.989l17.902,17.902
		c3.297,3.296,8.64,3.296,11.937,0c3.294-3.298,3.294-8.64,0-11.937l-17.902-17.902l35.806-35.805l17.901,17.902
		c3.298,3.296,8.641,3.296,11.937,0c3.295-3.297,3.295-8.641,0-11.936l-17.902-17.902l35.806-35.806L297.774,261.967z"/>
	<circle display="none" fill="#F2484B" cx="88.433" cy="254.339" r="8.44"/>
	<circle display="none" fill="#F2484B" cx="88.433" cy="302.082" r="8.439"/>
	<path fill="#794334" d="M210.471,496.522L15.477,301.53c-3.62,12.819-6.588,25.765-8.92,38.822l165.091,165.092
		C184.705,503.111,197.652,500.144,210.471,496.522z"/>
	<path fill="#794334" d="M505.443,171.648L340.352,6.557c-13.058,2.332-26.003,5.299-38.822,8.904
		c0,0.016,194.994,195.01,194.994,195.01C500.144,197.652,503.112,184.705,505.443,171.648z"/>
</g>
<image overflow="visible" width="128" height="128" xlink:href="../tilde-enhanced-master/New Folder/tilde-enhanced-master/assets/icons/nfl2-d.png"  transform="matrix(0.9999 0 0 0.9999 610.0002 44.5215)">
</image>
</svg>
