<?xml version="1.0" encoding="utf-8"?>
<!-- Generator: Adobe Illustrator 16.0.0, SVG Export Plug-In . SVG Version: 6.00 Build 0)  -->
<!DOCTYPE svg PUBLIC "-//W3C//DTD SVG 1.1//EN" "http://www.w3.org/Graphics/SVG/1.1/DTD/svg11.dtd">
<svg version="1.1" id="Capa_1" xmlns="http://www.w3.org/2000/svg" xmlns:xlink="http://www.w3.org/1999/xlink" x="0px" y="0px"
	 width="1000px" height="1000px" viewBox="0 0 1000 1000" enable-background="new 0 0 1000 1000" xml:space="preserve">
<g>
	<path fill="none" d="M500.51,382.293c-27.744,0-51,13.056-69.768,38.76S402.59,480.62,402.59,522.644
		c0,34.068,6.732,62.424,20.196,85.271c13.26,22.848,30.804,34.271,52.632,34.271c32.027,0,59.567-15.708,82.619-46.716
		c23.052-31.211,34.68-66.707,34.884-106.895c0-32.231-9.384-57.936-28.152-77.315C546.001,391.881,524.581,382.293,500.51,382.293z
		"/>
	<path opacity="0.5" fill="#D14836" d="M858.731,126.071C767.543,42.023,654.12,0,518.665,0
		c-142.391,0-263.77,47.735-363.933,143.411S4.386,358.017,4.386,500.408c0,136.475,47.735,253.773,143.003,352.101
		C243.064,950.836,371.582,1000,533.354,1000c97.511,0,193.187-19.992,287.025-60.18c30.6-13.056,45.492-48.144,33.048-78.947
		c-12.852-31.824-49.164-46.512-80.783-33.048c-81.6,35.088-161.567,52.632-239.494,52.632c-124.031,0-220.114-37.74-288.25-113.423
		c-67.931-75.479-101.999-164.219-101.999-266.015c0-110.567,36.516-202.774,109.344-276.825
		c72.623-73.848,162.178-110.975,268.257-110.975c97.716,0,180.335,30.396,247.654,91.187s100.979,137.291,100.979,229.498
		c0,63.035-15.504,115.667-46.308,157.487c-30.146,41.127-61.467,61.92-93.957,62.789l-12.688,117.715
		c75.44-0.718,140.709-33.946,195.793-99.925c55.691-66.504,83.639-146.879,83.639-240.922
		C995.614,311.914,950.122,210.118,858.731,126.071z"/>
	<path fill="#D14836" d="M726.744,654.223c-17.952,0-26.928-9.588-26.928-28.968c0-15.708,1.224-34.067,3.468-55.283l37.943-310.282
		H610.669l-8.364,30.396c-33.252-27.132-69.768-40.8-109.343-40.8c-62.832,0-116.688,25.092-161.363,75.072
		c-44.879,49.979-67.115,114.443-67.115,193.187c0,76.907,19.788,139.127,59.567,186.25c39.779,47.328,87.516,70.788,143.411,70.788
		c49.979,0,92.615-21.012,128.11-62.832c26.725,40.188,66.096,60.18,118.115,60.18c0.835,0,1.662-0.026,2.494-0.034l12.688-117.715
		C728.161,654.2,727.453,654.223,726.744,654.223z M558.037,595.471c-23.052,31.008-50.592,46.716-82.619,46.716
		c-21.828,0-39.372-11.424-52.632-34.271c-13.464-22.848-20.196-51.203-20.196-85.271c0-42.023,9.385-75.887,28.152-101.591
		s42.023-38.76,69.768-38.76c24.071,0,45.491,9.588,64.259,28.968c18.769,19.38,28.152,45.084,28.152,77.315
		C592.717,528.764,581.089,564.26,558.037,595.471z"/>
</g>
</svg>
