<?xml version="1.0" encoding="utf-8"?>
<!-- Generator: Adobe Illustrator 16.0.0, SVG Export Plug-In . SVG Version: 6.00 Build 0)  -->
<!DOCTYPE svg PUBLIC "-//W3C//DTD SVG 1.1//EN" "http://www.w3.org/Graphics/SVG/1.1/DTD/svg11.dtd">
<svg version="1.1" id="Capa_1" xmlns="http://www.w3.org/2000/svg" xmlns:xlink="http://www.w3.org/1999/xlink" x="0px" y="0px"
	 width="1000px" height="1000px" viewBox="0 0 1000 1000" enable-background="new 0 0 1000 1000" xml:space="preserve">
<circle fill="#DF7444" cx="500" cy="500" r="500"/>
<path fill="#392F30" d="M13.018,539.071c64.661-61.75,170.964-81.357,247.375-45.679c-67.821,96.732-117.786,206.804-145.625,325.34
	c8.411,10.16,17.286,19.893,26.464,29.339c2.519-2.375,4.5-5.356,5.286-8.981c26.268-119.357,76.054-229.947,144.196-326.715
	c45.625,35.411,68.018,93.696,62.946,168.482l-0.071,0.964l0.036,0.982c4.481,108.268,66.893,207.339,166.928,264.982
	c31.465,18.143,64.429,30.768,97.607,38.018c29.607-7.179,58.143-17,85.429-29.179c-54.446,4.215-112.089-9.179-165.214-39.785
	c-89.09-51.34-144.732-138.965-149.036-234.572c7.054-108.285-35.857-167.393-77.214-199.018c26.553-34.732,55.571-67.464,86.75-98
	c127.75,118.804,247.875,246.054,358.5,380.59l77.018,93.696l27.589-22.696l-77.018-93.697
	c-111.125-135.143-231.732-263-360-382.428c24.821-22.482,50.893-43.607,78.089-63.268c42.679,53.946,111.304,80.375,197.072,74.732
	c80.696,3.661,156.428,47.589,207.91,120.607c40.036,56.785,60.411,124.321,58.375,187.321
	c11.125-28.768,19.625-58.821,25.304-89.875c-10.571-41.268-28.875-81.696-54.482-118.018
	c-58.125-82.447-144.356-131.929-236.571-135.75l-0.982-0.036l-0.964,0.071c-72.679,4.893-130.25-16.268-165.982-59.643
	C624.553,215.839,728,170.964,839.072,146.5c3.625-0.804,6.518-2.875,8.893-5.393c-9.429-9.143-19.143-18-29.268-26.375
	C708.16,140.696,605.035,185.982,513.178,247c-34.75-69.786-22.589-167.857,29.769-235.161l7.268-9.339
	C533.714,0.857,516.964,0,500,0v10.964c-49.536,78.411-56.911,180.518-16.536,256.625c-29.625,21.339-57.946,44.339-84.875,68.875
	c-58.375-53.375-118.125-105.196-179.518-154.893l-59.196-47.928c-8.786,8.161-17.25,16.625-25.429,25.393l62.16,50.322
	c60.161,48.696,118.732,99.446,175.982,151.732c-32.661,32.107-63.054,66.536-90.804,103.072c-2.035-1.036-4.106-2.107-6.054-3.019
	C191.035,421.482,79.643,438.107,3.393,500H0c0,16.607,0.856,33,2.429,49.179L13.018,539.071z"/>
</svg>
