<svg id="Layer_1" height="512" viewBox="0 0 128 128" width="512" xmlns="http://www.w3.org/2000/svg" data-name="Layer 1"><path d="m29.067 10.37c.165.165.339.34.5.514l59.633 66.505 5.215 5.8 5.204 5.811 5.215 5.8 15.266 17.031-8.264 8.264-17.028-15.261-5.8-5.215-5.812-5.206-5.806-5.213-66.503-59.64a13.222 13.222 0 1 1 18.18-19.19z" fill="#ad794d"/><path d="m111.525 103.873-7.652 7.652a5.845 5.845 0 0 0 0 8.264 5.845 5.845 0 0 0 8.264 0l7.652-7.652a5.845 5.845 0 0 0 0-8.264 5.844 5.844 0 0 0 -8.264 0z" fill="#e6e7e8"/><path d="m99.619 89.004 5.215 5.803-10.026 10.027-5.803-5.215z" fill="#e6e7e8"/><path d="m94.413 83.192 5.206 5.812-10.614 10.615-5.812-5.206z" fill="#bfc0c1"/><path d="m89.198 77.389 5.215 5.803-11.22 11.221-5.803-5.216z" fill="#e6e7e8"/><path d="m117.63 29.067c-.166.165-.34.34-.514.5l-66.505 59.633-5.8 5.215-5.811 5.204-5.8 5.216-17.031 15.265-8.264-8.264 15.261-17.028 5.215-5.8 5.206-5.812 5.216-5.8 59.636-66.5a13.222 13.222 0 1 1 19.191 18.18z" fill="#d4945e"/><path d="m81.125 55.527a1.749 1.749 0 0 1 -1.169-3.052l16.283-14.6a1.75 1.75 0 0 1 2.337 2.606l-16.284 14.599a1.74 1.74 0 0 1 -1.167.447z" fill="#ad794d"/><path d="m24.127 111.525-7.652-7.652a5.845 5.845 0 0 0 -8.264 0 5.844 5.844 0 0 0 0 8.264l7.652 7.652a5.845 5.845 0 0 0 8.264 0 5.844 5.844 0 0 0 0-8.264z" fill="#e6e7e8"/><path d="m38.996 99.619-5.803 5.216-10.027-10.027 5.215-5.803z" fill="#e6e7e8"/><path d="m44.808 94.413-5.812 5.206-10.615-10.614 5.206-5.812z" fill="#bfc0c1"/><path d="m50.611 89.198-5.803 5.215-11.221-11.22 5.216-5.803z" fill="#e6e7e8"/></svg>