<?xml version="1.0" encoding="utf-8"?>
<!-- Generator: Adobe Illustrator 16.0.0, SVG Export Plug-In . SVG Version: 6.00 Build 0)  -->
<!DOCTYPE svg PUBLIC "-//W3C//DTD SVG 1.1//EN" "http://www.w3.org/Graphics/SVG/1.1/DTD/svg11.dtd">
<svg version="1.1" id="Layer_1" xmlns="http://www.w3.org/2000/svg" xmlns:xlink="http://www.w3.org/1999/xlink" x="0px" y="0px"
	 width="75.1px" height="63.8px" viewBox="0 0 75.1 63.8" enable-background="new 0 0 75.1 63.8" xml:space="preserve">
<path fill="#E1F7FE" d="M37.6,12L18.8,24l18.8,12L18.8,48L0,35.9l18.8-12L0,12L18.8,0L37.6,12z M18.7,51.8l18.8-12l18.8,12l-18.8,12
	L18.7,51.8z M37.6,35.9l18.8-12L37.6,12L56.3,0l18.8,12L56.3,24l18.8,12L56.3,48L37.6,35.9z"/>
<g id="Editble" display="none">
	<g display="inline">
		<rect x="-105" y="5" fill="none" width="506" height="71.8"/>
		<path d="M0.2,13.6h16.3c10.399,0,19,6.1,19,19.8v2.9c0,13.8-8,20-18.7,20H0.2V13.6z M9.4,21.3v27.2h7c5.9,0,9.9-3.899,9.9-12.5
			V33.8c0-8.6-4.1-12.5-10.2-12.5H9.4z M40.4,21.8H47.7l1.1,8c1.4-5.5,4.9-8.3,11.3-8.3h2.2v9.2h-3.7c-7.399,0-9.2,2.6-9.2,9.9v15.8
			h-9V21.8z M64.3,39.8v-1c0-11.6,7.4-17.9,17.5-17.9c10.3,0,17.5,6.4,17.5,17.9v1c0,11.4-7,17.5-17.5,17.5
			C70.6,57.3,64.3,51.201,64.3,39.8z M90.1,39.701V38.9c0-6.5-3.2-10.3-8.3-10.3c-5,0-8.4,3.5-8.4,10.3v0.801
			c0,6.199,3.2,9.699,8.301,9.699C86.9,49.4,90.1,46,90.1,39.701z M104,21.8h7.6l0.9,6.6C114.4,24,118.2,21,123.9,21
			c8.801,0,14.601,6.4,14.601,18v1c0,11.4-6.4,17.301-14.601,17.301c-5.5,0-9.199-2.5-11-6.5v17.5H104V21.8z M129.3,39.8V39
			c0-6.899-3.5-10.299-8.3-10.299c-5,0-8.4,3.799-8.4,10.299v0.701c0,6.1,3.2,10,8.2,10C126,49.5,129.3,46.1,129.3,39.8z
			 M151.7,50.1l-0.7,6.3h-7.8V10.2h8.8V28c1.899-4.5,5.8-7,11.2-7c8.199,0.1,14.3,5.8,14.3,17.3v1c0,11.5-5.8,18-14.601,18
			C157.3,57.3,153.5,54.5,151.7,50.1z M168.5,39.3V38.5c0-6.399-3.5-9.799-8.3-9.799c-5,0-8.4,4-8.4,10V39.4
			c0,6.5,3.3,10.2,8.3,10.2C165.3,49.5,168.5,46.1,168.5,39.3z M181.6,39.8v-1c0-11.6,7.4-17.9,17.5-17.9c10.3,0,17.5,6.4,17.5,17.9
			v1c0,11.4-7.1,17.5-17.5,17.5C187.9,57.3,181.6,51.201,181.6,39.8z M207.4,39.701V38.9c0-6.5-3.199-10.3-8.3-10.3
			c-5,0-8.399,3.5-8.399,10.3v0.801c0,6.199,3.199,9.699,8.3,9.699C204.2,49.4,207.4,46,207.4,39.701z M228.3,38.4l-12.1-16.7H226.6
			l7,10.4l7.101-10.4H251l-12.3,16.6l13,18h-10.2l-8-11.5l-7.7,11.5h-10.6L228.3,38.4z"/>
	</g>
</g>
</svg>
