<?xml version="1.0" encoding="iso-8859-1"?>
<!-- Generator: Adobe Illustrator 19.0.0, SVG Export Plug-In . SVG Version: 6.00 Build 0)  -->
<svg version="1.1" id="Layer_1" xmlns="http://www.w3.org/2000/svg" xmlns:xlink="http://www.w3.org/1999/xlink" x="0px" y="0px"
	 viewBox="0 0 512.001 512.001" style="enable-background:new 0 0 512.001 512.001;" xml:space="preserve">
<polygon style="fill:#63C4F2;" points="110.601,204.687 256,110.605 401.4,204.687 401.4,401.405 256,486.934 110.601,401.405 "/>
<g>
	<polygon style="fill:#8AD9FF;" points="256,486.934 401.4,401.405 401.4,204.687 256,298.769 	"/>
	<polygon style="fill:#8AD9FF;" points="256,110.605 110.601,204.687 256,298.769 	"/>
</g>
<polygon style="fill:#1C9AD6;" points="401.4,204.687 504.036,290.217 358.636,384.299 256,298.769 "/>
<g>
	<polygon style="fill:#1C74BB;" points="110.601,204.687 7.965,290.217 153.365,384.299 256,298.769 	"/>
	<polygon style="fill:#1C74BB;" points="401.4,204.687 504.036,119.158 358.636,25.076 256,110.605 	"/>
</g>
<polygon style="fill:#1C9AD6;" points="110.601,204.687 7.965,119.158 153.365,25.076 256,110.605 "/>
<path d="M509.169,284.057l-95.243-79.369l95.243-79.369c4.086-3.406,3.683-10.004-0.778-12.892l-91.885-59.455
	c-3.714-2.403-8.68-1.343-11.088,2.377c-2.405,3.718-1.342,8.682,2.377,11.088l82.74,53.537l-89.733,74.776l-131.299-84.958
	l89.733-74.776l22.031,14.256c3.717,2.404,8.682,1.344,11.088-2.377c2.406-3.718,1.342-8.682-2.377-11.088l-26.987-17.462
	c-2.946-1.906-6.791-1.676-9.489,0.572L256,100.167l-97.501-81.252c-2.697-2.247-6.543-2.479-9.489-0.572L3.61,112.426
	c-4.461,2.888-4.863,9.486-0.778,12.892l95.243,79.369l-95.243,79.37c-4.086,3.406-3.683,10.004,0.778,12.892l99.015,64.069
	c-0.028,0.273-0.043,0.55-0.043,0.83v39.557c0,2.842,1.503,5.471,3.953,6.912l27.707,16.298c4.024,2.366,9.34,0.703,11.325-3.507
	c1.743-3.696,0.324-8.246-3.193-10.316l-23.755-13.972v-25.451l30.391,19.664c2.915,1.886,6.822,1.649,9.489-0.572L256,309.209
	l97.501,81.252c2.667,2.222,6.575,2.458,9.489,0.572l30.391-19.664v25.451L256,477.634l-88.46-52.036
	c-3.818-2.245-8.733-0.971-10.978,2.846s-0.971,8.731,2.846,10.978l92.526,54.427c2.485,1.461,5.647,1.461,8.131,0l145.4-85.529
	c2.449-1.441,3.953-4.07,3.953-6.912v-38.838c0-0.509-0.052-1.004-0.143-1.487l99.116-64.133
	C512.853,294.061,513.256,287.462,509.169,284.057z M256,289.219l-130.64-84.532L256,120.156l130.64,84.531L256,289.219z
	 M152.767,35.014L242.5,109.79L111.2,194.75l-89.733-74.776L152.767,35.014z M152.767,374.361L21.467,289.403l89.733-74.776
	L242.5,299.585L152.767,374.361z M359.235,374.361l-89.733-74.776l131.299-84.958l89.733,74.776L359.235,374.361z"/>
<g>
</g>
<g>
</g>
<g>
</g>
<g>
</g>
<g>
</g>
<g>
</g>
<g>
</g>
<g>
</g>
<g>
</g>
<g>
</g>
<g>
</g>
<g>
</g>
<g>
</g>
<g>
</g>
<g>
</g>
</svg>
