<svg id="Layer_1" height="512" viewBox="0 0 128 128" width="512" xmlns="http://www.w3.org/2000/svg" data-name="Layer 1"><path d="m121.459 19.523a154.67 154.67 0 0 1 -3.867 24.558c-.913 3.769-2.016 7.644-3.352 11.554-4.052 11.872-10.225 24.056-19.608 34.287-.743.814-1.513 1.613-2.305 2.405-1.542 1.541-3.14 3.012-4.78 4.384-21.758 18.434-51.167 23.447-68.024 24.748a12.077 12.077 0 0 1 -12.983-12.982c1.3-16.857 6.315-46.266 24.749-68.024 1.372-1.64 2.843-3.238 4.384-4.78q1.188-1.188 2.4-2.3c10.236-9.388 22.42-15.561 34.292-19.613 3.91-1.336 7.785-2.44 11.554-3.352a154.67 154.67 0 0 1 24.558-3.867 12.076 12.076 0 0 1 12.982 12.982z" fill="#e57e25"/><path d="m63 106.65a1.75 1.75 0 0 1 -.714-3.348 84.638 84.638 0 0 0 20.28-12.529 1.75 1.75 0 1 1 2.262 2.67 88.126 88.126 0 0 1 -21.118 13.057 1.731 1.731 0 0 1 -.71.15z" fill="#be681f"/><g fill="#e6e7e8"><path d="m24.329 89.155a1.75 1.75 0 0 1 -1.423-2.766 279 279 0 0 1 22.124-27.289c2.1-2.288 4.419-4.7 6.893-7.177 1.219-1.219 2.431-2.417 3.656-3.586a273.658 273.658 0 0 1 30.812-25.431 1.75 1.75 0 0 1 2.029 2.851 270.224 270.224 0 0 0 -30.42 25.109c-1.21 1.154-2.4 2.332-3.6 3.531-2.437 2.438-4.723 4.818-6.793 7.074a275.465 275.465 0 0 0 -21.848 26.95 1.749 1.749 0 0 1 -1.43.734z"/><path d="m57.435 59.185a1.744 1.744 0 0 1 -1.238-.513l-8.549-8.549a1.75 1.75 0 0 1 2.475-2.475l8.549 8.552a1.751 1.751 0 0 1 -1.237 2.988z"/><path d="m49.725 66.8a1.744 1.744 0 0 1 -1.238-.513l-7.547-7.551a1.75 1.75 0 1 1 2.475-2.475l7.547 7.547a1.75 1.75 0 0 1 -1.237 2.992z"/><path d="m42.014 74.405a1.747 1.747 0 0 1 -1.238-.512l-6.544-6.544a1.75 1.75 0 0 1 2.475-2.475l6.544 6.544a1.75 1.75 0 0 1 -1.237 2.987z"/><path d="m34.3 82.016a1.744 1.744 0 0 1 -1.238-.513l-5.541-5.541a1.75 1.75 0 0 1 2.479-2.475l5.541 5.541a1.751 1.751 0 0 1 -1.241 2.988z"/><path d="m65.045 51.474a1.741 1.741 0 0 1 -1.237-.513l-7.547-7.546a1.75 1.75 0 0 1 2.474-2.475l7.547 7.547a1.75 1.75 0 0 1 -1.237 2.987z"/><path d="m72.655 43.764a1.743 1.743 0 0 1 -1.237-.513l-6.544-6.543a1.75 1.75 0 0 1 2.475-2.475l6.544 6.544a1.75 1.75 0 0 1 -1.238 2.987z"/><path d="m80.266 36.054a1.744 1.744 0 0 1 -1.238-.513l-5.541-5.541a1.75 1.75 0 0 1 2.475-2.475l5.538 5.541a1.751 1.751 0 0 1 -1.237 2.988z"/></g><path d="m32.1 95.9a114.8 114.8 0 0 0 23.52 18.34c-3.91 1.34-7.79 2.44-11.54 3.35a129.409 129.409 0 0 1 -18.35-15.32 129.409 129.409 0 0 1 -15.32-18.35c.91-3.75 2.01-7.63 3.35-11.54a114.8 114.8 0 0 0 18.34 23.52z" fill="#be681f"/><path d="m117.59 44.08c-.91 3.77-2.01 7.64-3.35 11.55a114.5 114.5 0 0 0 -18.34-23.53 114.5 114.5 0 0 0 -23.53-18.34c3.91-1.34 7.78-2.44 11.55-3.35a129.409 129.409 0 0 1 18.35 15.32 129.409 129.409 0 0 1 15.32 18.35z" fill="#be681f"/></svg>