<?xml version="1.0" encoding="utf-8"?>
<!-- Generator: Adobe Illustrator 16.0.0, SVG Export Plug-In . SVG Version: 6.00 Build 0)  -->
<!DOCTYPE svg PUBLIC "-//W3C//DTD SVG 1.1//EN" "http://www.w3.org/Graphics/SVG/1.1/DTD/svg11.dtd">
<svg version="1.1" id="Ebene_1" xmlns="http://www.w3.org/2000/svg" xmlns:xlink="http://www.w3.org/1999/xlink" x="0px" y="0px"
	 width="24px" height="24px" viewBox="0 0 24 24" enable-background="new 0 0 24 24" xml:space="preserve">
<g id="surface27351330">
	<path fill="#FFB300" d="M19.801,19.5C17.699,21.051,14.551,22,12,22c-3.648,0-6.898-1.449-9.398-3.699
		c-0.203-0.199,0-0.402,0.199-0.301c2.699,1.551,5.75,2.449,9.148,2.449c2.301,0,5.199-0.5,7.551-1.5
		C19.852,18.852,20.148,19.25,19.801,19.5z M20.551,18.449c-0.25-0.348-1.75-0.148-2.402-0.098c-0.199,0-0.25-0.152-0.047-0.301
		c1.148-0.852,3.098-0.602,3.297-0.301c0.203,0.301-0.047,2.25-1.148,3.148c-0.148,0.152-0.352,0.051-0.25-0.098
		C20.25,20.199,20.801,18.801,20.551,18.449z"/>
	<path fill="#1E1E1E" d="M18.449,14.898c-0.5-0.648-1-1.199-1-2.449V8.301c0-1.75,0-3.301-1.25-4.5
		c-1-0.949-2.648-1.301-3.949-1.301C9.5,2.5,7.102,3.602,6.5,6.699c-0.051,0.352,0.199,0.5,0.398,0.551l2.551,0.301
		c0.25,0,0.402-0.25,0.449-0.5C10.102,6,10.949,5.5,11.949,5.5c0.551,0,1.602,0.301,1.602,1.5v1.5c-1.602,0-3.301,0-4.699,0.602
		c-1.652,0.699-2.801,2.148-2.801,4.297c0,2.75,1.699,4.102,3.898,4.102c1.852,0,2.949-0.449,4.402-1.898
		c0.449,0.699,0.648,1.098,1.5,1.848c0.199,0.102,0.449,0.102,0.598-0.051c0.5-0.449,1.449-1.297,2-1.75
		C18.699,15.449,18.648,15.148,18.449,14.898z M13.5,11.051c0,1-0.051,3.449-2.5,3.449c-1.5,0-1.5-1.5-1.5-1.5
		c0-2.25,2.102-2.5,4-2.5V11.051z"/>
</g>
</svg>
