<?xml version="1.0" encoding="utf-8"?>
<!-- Generator: Adobe Illustrator 16.0.0, SVG Export Plug-In . SVG Version: 6.00 Build 0)  -->
<!DOCTYPE svg PUBLIC "-//W3C//DTD SVG 1.1//EN" "http://www.w3.org/Graphics/SVG/1.1/DTD/svg11.dtd">
<svg version="1.1" id="Ebene_1" xmlns="http://www.w3.org/2000/svg" xmlns:xlink="http://www.w3.org/1999/xlink" x="0px" y="0px"
	 width="48px" height="48px" viewBox="0 0 48 48" enable-background="new 0 0 48 48" xml:space="preserve">
<path fill="#EFF3F4" d="M9,28h3v14H9V28z"/>
<path fill="#E1E7EA" d="M9,39h26v3H9V39z"/>
<path fill="#EFF3F4" d="M32,28h3v14h-3V28z M15,34h14v3H15V34z"/>
<path fill="#A68A6E" d="M15.081,28.26L29,29.758l-0.32,2.982l-13.92-1.498L15.081,28.26z"/>
<path fill="#EF6C00" d="M36.871,6l2.133,13.835l-2.966,0.458L33.904,6.457L36.871,6z"/>
<path fill="#FF9800" d="M28.471,8.237l6.83,12.218l-2.619,1.464L25.851,9.701L28.471,8.237z"/>
<path fill="#D38B28" d="M20.501,14.551L32,22.533l-1.711,2.465L18.79,17.017L20.501,14.551z"/>
<path fill="#C09553" d="M16.899,21.218l13.173,4.739l-1.016,2.823l-13.173-4.738L16.899,21.218z"/>
</svg>
