<?xml version="1.0" encoding="utf-8"?>
<!-- Generator: Adobe Illustrator 16.0.0, SVG Export Plug-In . SVG Version: 6.00 Build 0)  -->
<!DOCTYPE svg PUBLIC "-//W3C//DTD SVG 1.1//EN" "http://www.w3.org/Graphics/SVG/1.1/DTD/svg11.dtd">
<svg version="1.1" id="Ebene_1" xmlns="http://www.w3.org/2000/svg" xmlns:xlink="http://www.w3.org/1999/xlink" x="0px" y="0px"
	 width="32px" height="32px" viewBox="0 0 32 32" enable-background="new 0 0 32 32" xml:space="preserve">
<g id="surface27349805">
	<path fill="#0F0F0F" d="M16,4C9.371,4,4,9.371,4,16c0,5.301,3.438,9.801,8.207,11.387c0.602,0.109,0.82-0.258,0.82-0.578
		c0-0.285-0.012-1.039-0.016-2.039c-3.34,0.723-4.043-1.609-4.043-1.609c-0.547-1.387-1.332-1.758-1.332-1.758
		c-1.09-0.742,0.082-0.727,0.082-0.727c1.203,0.086,1.836,1.234,1.836,1.234c1.07,1.836,2.809,1.305,3.492,1
		c0.109-0.777,0.422-1.305,0.762-1.605c-2.664-0.301-5.465-1.332-5.465-5.93c0-1.313,0.469-2.383,1.234-3.223
		c-0.121-0.301-0.535-1.523,0.117-3.176c0,0,1.008-0.32,3.301,1.23C13.953,9.941,14.98,9.809,16,9.805
		c1.02,0.004,2.047,0.137,3.004,0.402c2.293-1.551,3.297-1.23,3.297-1.23c0.656,1.652,0.246,2.875,0.121,3.176
		c0.77,0.84,1.23,1.91,1.23,3.223c0,4.609-2.805,5.621-5.477,5.922c0.43,0.367,0.813,1.102,0.813,2.219
		c0,1.605-0.012,2.898-0.012,3.293c0,0.32,0.215,0.695,0.824,0.578C24.566,25.797,28,21.301,28,16C28,9.371,22.629,4,16,4z"/>
</g>
</svg>
