<?xml version="1.0" encoding="UTF-8"?>
<svg xmlns="http://www.w3.org/2000/svg" xmlns:xlink="http://www.w3.org/1999/xlink" width="48pt" height="48pt" viewBox="0 0 48 48" version="1.1">
<g id="surface26646824">
<path style=" stroke:none;fill-rule:nonzero;fill:rgb(100%,100%,100%);fill-opacity:1;" d="M 12 32 L 12 8 L 39 8 L 39 26 L 33 32 L 24 32 L 18 38 L 18 32 Z M 12 32 "/>
<path style=" stroke:none;fill-rule:nonzero;fill:rgb(52.156863%,18.039216%,61.568627%);fill-opacity:1;" d="M 9 5 L 6 12.121094 L 6 38 L 15 38 L 15 43 L 20 43 L 25 38 L 32 38 L 42 28 L 42 5 Z M 38 26 L 33 31 L 24 31 L 19 36 L 19 31 L 13 31 L 13 9 L 38 9 Z M 38 26 "/>
<path style=" stroke:none;fill-rule:nonzero;fill:rgb(52.156863%,18.039216%,61.568627%);fill-opacity:1;" d="M 32 25 L 27 25 L 27 15 L 32 15 Z M 24 25 L 19 25 L 19 15 L 24 15 Z M 24 25 "/>
</g>
</svg>
