<?xml version="1.0" encoding="utf-8"?>
<!-- Generator: Adobe Illustrator 16.0.0, SVG Export Plug-In . SVG Version: 6.00 Build 0)  -->
<!DOCTYPE svg PUBLIC "-//W3C//DTD SVG 1.1//EN" "http://www.w3.org/Graphics/SVG/1.1/DTD/svg11.dtd">
<svg version="1.1" id="Ebene_1" xmlns="http://www.w3.org/2000/svg" xmlns:xlink="http://www.w3.org/1999/xlink" x="0px" y="0px"
	 width="28px" height="17.84px" viewBox="2 8.08 28 17.84" enable-background="new 2 8.08 28 17.84" xml:space="preserve">
<path fill="#111111" d="M30,9.215c0,0.172-0.137,0.309-0.313,0.309h-1.682L20.391,25.74c-0.053,0.107-0.16,0.18-0.277,0.18
	c-0.004,0-0.004,0-0.004,0c-0.121,0-0.229-0.064-0.281-0.172l-3.613-7.168l-3.902,7.18c-0.055,0.104-0.156,0.16-0.281,0.16
	c-0.117-0.004-0.223-0.068-0.273-0.176L4.055,9.523H2.313C2.141,9.523,2,9.387,2,9.215V8.391c0-0.172,0.141-0.309,0.313-0.309h6.211
	c0.172,0,0.313,0.137,0.313,0.309v0.824c0,0.172-0.141,0.309-0.313,0.309H7.188l5.316,12.264l2.766-5.168l-3.506-7.092h-0.844
	c-0.172,0-0.313-0.139-0.313-0.313v-0.82c0-0.172,0.141-0.313,0.313-0.313h4.599c0.172,0,0.31,0.141,0.31,0.313v0.82
	c0,0.172-0.138,0.309-0.31,0.309h-0.813l2.021,4.414l2.401-4.414h-1.474c-0.176,0-0.313-0.135-0.313-0.309v-0.82
	c0-0.172,0.139-0.313,0.313-0.313h4.466c0.172,0,0.31,0.141,0.31,0.313v0.82c0,0.172-0.138,0.309-0.31,0.309h-0.979l-3.505,6.371
	l2.854,5.875L26,9.523h-1.746c-0.172,0-0.313-0.139-0.313-0.311v-0.82c0-0.172,0.141-0.313,0.313-0.313h5.434
	C29.863,8.082,30,8.223,30,8.395V9.215z"/>
</svg>
