<?xml version="1.0" encoding="UTF-8"?>
<svg xmlns="http://www.w3.org/2000/svg" xmlns:xlink="http://www.w3.org/1999/xlink" width="24pt" height="24pt" viewBox="0 0 24 24" version="1.1">
<g id="surface27351330">
<path style=" stroke:none;fill-rule:nonzero;fill:rgb(100%,70.196078%,0%);fill-opacity:1;" d="M 19.800781 19.5 C 17.699219 21.050781 14.550781 22 12 22 C 8.351562 22 5.101562 20.550781 2.601562 18.300781 C 2.398438 18.101562 2.601562 17.898438 2.800781 18 C 5.5 19.550781 8.550781 20.449219 11.949219 20.449219 C 14.25 20.449219 17.148438 19.949219 19.5 18.949219 C 19.851562 18.851562 20.148438 19.25 19.800781 19.5 Z M 20.550781 18.449219 C 20.300781 18.101562 18.800781 18.300781 18.148438 18.351562 C 17.949219 18.351562 17.898438 18.199219 18.101562 18.050781 C 19.25 17.199219 21.199219 17.449219 21.398438 17.75 C 21.601562 18.050781 21.351562 20 20.25 20.898438 C 20.101562 21.050781 19.898438 20.949219 20 20.800781 C 20.25 20.199219 20.800781 18.800781 20.550781 18.449219 Z M 20.550781 18.449219 "/>
<path style=" stroke:none;fill-rule:nonzero;fill:rgb(100%,100%,100%);fill-opacity:1;" d="M 18.449219 14.898438 C 17.949219 14.25 17.449219 13.699219 17.449219 12.449219 L 17.449219 8.300781 C 17.449219 6.550781 17.449219 5 16.199219 3.800781 C 15.199219 2.851562 13.550781 2.5 12.25 2.5 C 9.5 2.5 7.101562 3.601562 6.5 6.699219 C 6.449219 7.050781 6.699219 7.199219 6.898438 7.25 L 9.449219 7.550781 C 9.699219 7.550781 9.851562 7.300781 9.898438 7.050781 C 10.101562 6 10.949219 5.5 11.949219 5.5 C 12.5 5.5 13.550781 5.800781 13.550781 7 L 13.550781 8.5 C 11.949219 8.5 10.25 8.5 8.851562 9.101562 C 7.199219 9.800781 6.050781 11.25 6.050781 13.398438 C 6.050781 16.148438 7.75 17.5 9.949219 17.5 C 11.800781 17.5 12.898438 17.050781 14.351562 15.601562 C 14.800781 16.300781 15 16.699219 15.851562 17.449219 C 16.050781 17.550781 16.300781 17.550781 16.449219 17.398438 C 16.949219 16.949219 17.898438 16.101562 18.449219 15.648438 C 18.699219 15.449219 18.648438 15.148438 18.449219 14.898438 Z M 13.5 11.050781 C 13.5 12.050781 13.449219 14.5 11 14.5 C 9.5 14.5 9.5 13 9.5 13 C 9.5 10.75 11.601562 10.5 13.5 10.5 Z M 13.5 11.050781 "/>
</g>
</svg>
