<?xml version="1.0" encoding="utf-8"?>
<!-- Generator: Adobe Illustrator 16.0.0, SVG Export Plug-In . SVG Version: 6.00 Build 0)  -->
<!DOCTYPE svg PUBLIC "-//W3C//DTD SVG 1.1//EN" "http://www.w3.org/Graphics/SVG/1.1/DTD/svg11.dtd">
<svg version="1.1" id="Layer_1" xmlns="http://www.w3.org/2000/svg" xmlns:xlink="http://www.w3.org/1999/xlink" x="0px" y="0px"
	 width="741.63px" height="950.884px" viewBox="1.892 -14.001 741.63 950.884"
	 enable-background="new 1.892 -14.001 741.63 950.884" xml:space="preserve">
<g>
	<path fill="#E24514" d="M367.757,171.292c-46.208,32.498-98.577,69.332-126.639,130.271
		c-48.737,106.319,99.73,222.29,106.076,227.175c1.476,1.135,3.24,1.701,5,1.701c1.869,0,3.74-0.64,5.26-1.912
		c2.948-2.466,3.783-6.652,2.016-10.063c-0.537-1.035-53.831-104.551-51.852-178.813c0.701-25.866,36.898-55.208,75.221-86.272
		c35.098-28.453,74.883-60.701,98.16-98.426c51.102-83.04-5.695-164.692-6.275-165.508c-2.256-3.168-6.42-4.314-9.98-2.754
		c-3.557,1.57-5.526,5.416-4.715,9.219c0.115,0.541,11.16,54.537-19.574,110.168C427.794,129.067,399.973,148.633,367.757,171.292z"
		/>
	<path fill="#E24514" d="M562.43,207.909c3.26-2.455,4.217-6.934,2.246-10.508c-1.976-3.574-6.271-5.15-10.088-3.701
		c-7.851,2.984-192.221,74.053-192.221,159.922c0,59.194,25.286,90.463,43.749,113.299c7.242,8.957,13.494,16.691,15.556,23.295
		c5.801,19.029-7.941,53.424-13.722,65.072c-1.666,3.348-0.85,7.406,1.984,9.852c1.531,1.322,3.443,1.994,5.356,1.994
		c1.63,0,3.267-0.483,4.681-1.469c3.17-2.203,77.475-54.738,64.147-118.033c-4.965-24.059-16.787-41.637-27.219-57.149
		c-16.16-24.033-27.832-41.393-10.125-73.456C467.524,279.63,561.479,208.62,562.43,207.909z"/>
</g>
<g>
	<path fill="#A0C0F2" d="M82.51,568.494c-3.16,9.463-1.668,18.85,4.311,27.154c19.986,27.748,90.781,43.025,199.353,43.025
		c0.006,0,0.01,0,0.014,0c14.711,0,30.242-0.29,46.15-0.858c173.585-6.215,237.968-60.292,240.624-62.592
		c2.895-2.506,3.668-6.678,1.868-10.053c-1.801-3.373-5.682-5.067-9.391-4.047c-61.135,16.691-175.289,22.617-254.47,22.617
		c-88.601,0-133.721-6.383-144.769-11.097c5.668-7.782,40.629-21.682,83.951-30.202c4.142-0.813,6.986-4.638,6.576-8.836
		c-0.41-4.199-3.938-7.402-8.158-7.402C223.176,526.205,95.822,528.244,82.51,568.494z"/>
	<path fill="#A0C0F2" d="M663.359,512.795c-35.803,0-69.755,17.945-71.185,18.705c-3.312,1.773-4.99,5.57-4.082,9.219
		c0.912,3.644,4.188,6.203,7.942,6.207c0.761,0,76.372,0.619,83.221,43.82c6.065,37.271-71.542,97.657-101.958,117.782
		c-3.285,2.174-4.562,6.373-3.035,10.006c1.299,3.092,4.309,5.024,7.555,5.024c0.566,0,1.141-0.059,1.711-0.18
		c7.219-1.545,176.575-38.865,158.669-137.47C731.273,525.48,693.293,512.795,663.359,512.795z"/>
	<path fill="#A0C0F2" d="M547.216,696.462c0.59-3.158-0.726-6.371-3.354-8.217l-40.606-28.443c-1.98-1.387-4.482-1.821-6.808-1.207
		c-0.424,0.107-42.889,11.271-104.541,18.117c-24.469,2.744-51.876,4.193-79.263,4.193c-61.637,0-101.938-7.242-107.807-12.556
		c-0.777-1.491-0.531-2.17-0.394-2.547c1.066-2.965,6.781-6.487,10.465-7.883c4.068-1.506,6.263-5.924,4.996-10.072
		c-1.262-4.153-5.541-6.598-9.764-5.584c-40.734,9.83-60.652,23.576-59.203,40.855c2.574,30.637,73.535,46.361,133.525,50.518
		c8.627,0.59,17.957,0.89,27.725,0.89c0.006,0,0.01,0,0.016,0c99.755,0,227.639-31.3,228.915-31.617
		C544.242,702.146,546.624,699.626,547.216,696.462z"/>
	<path fill="#A0C0F2" d="M241.072,762.212c3.076-2,4.439-5.803,3.349-9.305c-1.088-3.502-4.363-5.804-8.043-5.754
		c-5.459,0.145-53.416,2.309-56.773,32.842c-1.016,9.125,1.598,17.463,7.771,24.776c17.219,20.406,63.698,32.535,142.071,37.078
		c9.271,0.558,18.689,0.836,27.996,0.836c99.64,0,166.745-31.196,169.556-32.524c2.726-1.289,4.521-3.967,4.683-6.976
		c0.161-3.008-1.342-5.86-3.912-7.434l-51.318-31.328c-1.78-1.086-3.911-1.445-5.942-1.029c-0.324,0.068-32.908,6.826-82.082,13.502
		c-9.306,1.267-20.957,1.908-34.629,1.908c-49.122,0-103.76-8.024-114.237-13.281C239.405,764.544,239.599,763.298,241.072,762.212z
		"/>
	<path fill="#A0C0F2" d="M311.006,936.883c228.23-0.192,350.727-40.781,374.323-66.322c8.354-9.034,9.257-17.591,8.548-23.179
		c-1.755-13.75-14.279-22.168-15.699-23.082c-3.426-2.203-8.023-1.627-10.695,1.455c-2.666,3.082-2.729,7.586-0.053,10.666
		c1.438,1.853,2.271,4.951-1.938,9.164c-9.434,8.811-104.581,35.556-263.001,43.591c-21.7,1.127-44.464,1.701-67.648,1.705
		c-141.842,0-245.648-19.43-259.275-30.751c5.252-7.547,41.971-19.604,81.02-26.424c4.4-0.769,7.373-4.914,6.691-9.328
		c-0.682-4.412-4.75-7.449-9.197-6.873c-1.102,0.15-4.84,0.373-9.168,0.639c-64.43,3.935-138.886,12.701-142.771,45.898
		c-1.18,10.115,1.826,19.3,8.938,27.292c17.4,19.551,67.415,45.545,299.92,45.545C311.002,936.883,311.002,936.883,311.006,936.883z
		"/>
</g>
</svg>
