<?xml version="1.0" encoding="utf-8"?>
<!-- Generator: Adobe Illustrator 16.0.0, SVG Export Plug-In . SVG Version: 6.00 Build 0)  -->
<!DOCTYPE svg PUBLIC "-//W3C//DTD SVG 1.1//EN" "http://www.w3.org/Graphics/SVG/1.1/DTD/svg11.dtd">
<svg version="1.1" id="Layer_1" xmlns="http://www.w3.org/2000/svg" xmlns:xlink="http://www.w3.org/1999/xlink" x="0px" y="0px"
	 width="741.631px" height="950.883px" viewBox="0 0 741.631 950.883" enable-background="new 0 0 741.631 950.883"
	 xml:space="preserve">
<g>
	<path fill="#CC5744" d="M367.758,171.292c-46.208,32.498-98.577,69.332-126.64,130.271
		c-48.737,106.319,99.73,222.289,106.076,227.176c1.477,1.135,3.24,1.701,5,1.701c1.869,0,3.74-0.641,5.26-1.912
		c2.948-2.467,3.783-6.652,2.017-10.064c-0.537-1.035-53.831-104.55-51.853-178.813c0.701-25.866,36.898-55.208,75.222-86.272
		c35.098-28.453,74.883-60.701,98.159-98.426c51.103-83.04-5.694-164.692-6.274-165.508c-2.256-3.168-6.42-4.314-9.98-2.754
		c-3.557,1.57-5.525,5.416-4.715,9.219c0.115,0.541,11.16,54.537-19.574,110.168C427.795,129.067,399.973,148.633,367.758,171.292z"
		/>
	<path fill="#CC5744" d="M562.43,207.909c3.26-2.455,4.217-6.934,2.246-10.508c-1.977-3.574-6.271-5.15-10.088-3.701
		c-7.852,2.984-192.222,74.053-192.222,159.922c0,59.194,25.286,90.463,43.749,113.299c7.242,8.957,13.494,16.691,15.557,23.294
		c5.801,19.029-7.941,53.424-13.723,65.072c-1.666,3.348-0.85,7.406,1.984,9.852c1.531,1.322,3.443,1.994,5.355,1.994
		c1.631,0,3.268-0.482,4.682-1.469c3.17-2.203,77.475-54.738,64.146-118.033c-4.965-24.059-16.787-41.637-27.219-57.149
		c-16.16-24.033-27.832-41.393-10.125-73.456C467.524,279.63,561.479,208.62,562.43,207.909z"/>
</g>
<g>
	<path fill="#4673AA" d="M82.51,568.495c-3.16,9.463-1.669,18.85,4.311,27.154c19.986,27.748,90.781,43.023,199.353,43.023
		c0.007,0,0.011,0,0.015,0c14.711,0,30.242-0.289,46.15-0.857c173.585-6.215,237.968-60.291,240.624-62.592
		c2.895-2.506,3.668-6.678,1.867-10.053c-1.801-3.373-5.682-5.066-9.391-4.047c-61.135,16.691-175.289,22.617-254.47,22.617
		c-88.602,0-133.722-6.383-144.77-11.098c5.668-7.781,40.629-21.682,83.951-30.201c4.142-0.814,6.986-4.639,6.576-8.836
		c-0.41-4.199-3.938-7.402-8.158-7.402C223.176,526.206,95.822,528.245,82.51,568.495z"/>
	<path fill="#4673AA" d="M663.359,512.795c-35.803,0-69.755,17.945-71.185,18.705c-3.313,1.773-4.99,5.57-4.082,9.219
		c0.912,3.645,4.188,6.203,7.941,6.207c0.762,0,76.372,0.619,83.222,43.82c6.064,37.27-71.542,97.656-101.958,117.781
		c-3.285,2.174-4.563,6.373-3.035,10.006c1.299,3.092,4.309,5.023,7.555,5.023c0.566,0,1.142-0.059,1.711-0.18
		c7.219-1.545,176.575-38.865,158.669-137.469C731.273,525.481,693.294,512.795,663.359,512.795z"/>
	<path fill="#4673AA" d="M547.217,696.461c0.59-3.158-0.727-6.371-3.354-8.217l-40.605-28.443c-1.98-1.387-4.482-1.82-6.809-1.207
		c-0.424,0.107-42.889,11.271-104.541,18.117c-24.469,2.744-51.876,4.193-79.263,4.193c-61.638,0-101.938-7.242-107.808-12.557
		c-0.776-1.49-0.53-2.17-0.394-2.547c1.065-2.965,6.781-6.486,10.465-7.883c4.068-1.506,6.263-5.924,4.996-10.072
		c-1.262-4.152-5.541-6.598-9.764-5.584c-40.734,9.83-60.652,23.576-59.203,40.855c2.574,30.637,73.535,46.361,133.524,50.518
		c8.627,0.59,17.958,0.891,27.726,0.891c0.006,0,0.01,0,0.016,0c99.755,0,227.64-31.301,228.915-31.617
		C544.242,702.147,546.624,699.625,547.217,696.461z"/>
	<path fill="#4673AA" d="M241.072,762.211c3.076-2,4.439-5.803,3.349-9.305c-1.088-3.502-4.362-5.805-8.043-5.754
		c-5.459,0.145-53.416,2.309-56.772,32.842c-1.017,9.125,1.598,17.463,7.771,24.775c17.22,20.406,63.698,32.535,142.071,37.078
		c9.271,0.559,18.689,0.836,27.996,0.836c99.64,0,166.745-31.195,169.556-32.523c2.727-1.289,4.521-3.967,4.684-6.977
		c0.161-3.008-1.342-5.859-3.912-7.434l-51.318-31.328c-1.779-1.086-3.91-1.445-5.941-1.029
		c-0.324,0.068-32.908,6.826-82.082,13.502c-9.307,1.268-20.957,1.908-34.629,1.908c-49.122,0-103.761-8.023-114.237-13.279
		C239.405,764.543,239.599,763.297,241.072,762.211z"/>
	<path fill="#4673AA" d="M311.007,936.883c228.229-0.191,350.727-40.781,374.322-66.322c8.354-9.033,9.258-17.592,8.549-23.18
		c-1.756-13.75-14.279-22.168-15.699-23.082c-3.426-2.203-8.023-1.627-10.695,1.455c-2.666,3.082-2.729,7.586-0.053,10.666
		c1.438,1.854,2.271,4.951-1.938,9.164c-9.434,8.811-104.581,35.557-263.001,43.592c-21.699,1.127-44.464,1.701-67.647,1.705
		c-141.843,0-245.648-19.43-259.275-30.752c5.252-7.547,41.971-19.604,81.02-26.424c4.4-0.768,7.373-4.914,6.691-9.328
		c-0.682-4.412-4.75-7.449-9.197-6.873c-1.102,0.15-4.84,0.373-9.168,0.639c-64.43,3.936-138.886,12.701-142.771,45.898
		c-1.181,10.115,1.825,19.301,8.938,27.293c17.4,19.551,67.415,45.545,299.92,45.545
		C311.003,936.883,311.003,936.883,311.007,936.883z"/>
</g>
</svg>
