<?xml version="1.0" encoding="utf-8"?>
<!-- Generator: Adobe Illustrator 16.0.0, SVG Export Plug-In . SVG Version: 6.00 Build 0)  -->
<!DOCTYPE svg PUBLIC "-//W3C//DTD SVG 1.1//EN" "http://www.w3.org/Graphics/SVG/1.1/DTD/svg11.dtd">
<svg version="1.1" id="Ebene_1" xmlns="http://www.w3.org/2000/svg" xmlns:xlink="http://www.w3.org/1999/xlink" x="0px" y="0px"
	 width="824.681px" height="1217.646px" viewBox="-208.504 -304.58 824.681 1217.646"
	 enable-background="new -208.504 -304.58 824.681 1217.646" xml:space="preserve">
<g id="Ebene_1_1_">
	<polygon fill="#280006" points="-192.791,106.51 203.825,-288.926 203.825,106.51 	"/>
	<polygon fill="#AC2D50" points="-192.779,106.514 203.837,501.965 203.837,106.514 	"/>
	<polygon fill="#561B2D" points="600.452,106.504 203.825,-288.931 203.825,106.504 	"/>
	<polygon fill="#842A43" points="600.462,106.51 203.837,501.957 203.837,106.51 	"/>
	<polygon fill="#CF2555" points="203.848,501.957 -192.779,106.514 -192.779,501.957 	"/>
	<polygon fill="#EE1E59" points="-192.77,501.965 203.848,897.417 203.848,501.965 	"/>
</g>
<g id="Ebene_3" display="none">
	<polygon display="inline" fill="#E8E8E8" stroke="#E8E8E8" stroke-width="13" stroke-miterlimit="10" points="-192.779,106.514 
		-155.114,106.514 203.837,-259.192 203.825,-288.926 	"/>
	<polygon display="inline" fill="#E8E8E8" stroke="#E8E8E8" stroke-width="13" stroke-miterlimit="10" points="600.452,106.514 
		562.787,106.514 203.837,-259.192 203.848,-288.926 	"/>
	<polygon fill="#E8E8E8" stroke="#E8E8E8" stroke-width="13" stroke-miterlimit="10" points="-192.791,106.52 -155.126,106.52 
		203.825,472.227 203.814,501.959 	"/>
	<polygon display="inline" fill="#E8E8E8" stroke="#E8E8E8" stroke-width="13" stroke-miterlimit="10" points="600.44,106.52 
		562.776,106.52 203.825,472.227 203.837,501.959 	"/>
	<polygon display="inline" fill="#E8E8E8" stroke="#E8E8E8" stroke-width="13" stroke-miterlimit="10" points="-192.779,501.957 
		-155.105,501.971 -171.672,121.288 -192.77,106.52 	"/>
	<polygon display="inline" fill="#E8E8E8" stroke="#E8E8E8" stroke-width="13" stroke-miterlimit="10" points="-192.77,501.971 
		-155.105,501.971 203.846,867.677 203.835,897.413 	"/>
	<polygon display="inline" fill="#E8E8E8" stroke="#E8E8E8" stroke-width="13" stroke-miterlimit="10" points="203.837,501.965 
		177.83,476.054 182.737,876.378 203.86,897.413 	"/>
</g>
</svg>
