<?xml version="1.0" encoding="utf-8"?>
<!-- Generator: Adobe Illustrator 16.0.0, SVG Export Plug-In . SVG Version: 6.00 Build 0)  -->
<!DOCTYPE svg PUBLIC "-//W3C//DTD SVG 1.1//EN" "http://www.w3.org/Graphics/SVG/1.1/DTD/svg11.dtd">
<svg version="1.1" id="Ebene_1" xmlns="http://www.w3.org/2000/svg" xmlns:xlink="http://www.w3.org/1999/xlink" x="0px" y="0px"
	 width="168px" height="168px" viewBox="0 0 168 168" enable-background="new 0 0 168 168" xml:space="preserve">
<path fill="#1FAA4D" d="M83.996,0.277c-46.249,0-83.743,37.493-83.743,83.742c0,46.25,37.494,83.741,83.743,83.741
	c46.254,0,83.744-37.49,83.744-83.741c0-46.246-37.49-83.738-83.745-83.738L83.996,0.277z M122.4,121.057
	c-1.5,2.461-4.721,3.24-7.18,1.73c-19.662-12.01-44.415-14.73-73.565-8.07c-2.809,0.641-5.609-1.119-6.249-3.93
	c-0.643-2.811,1.11-5.61,3.926-6.25c31.9-7.291,59.263-4.15,81.337,9.34C123.13,115.387,123.91,118.598,122.4,121.057z
	 M132.65,98.252c-1.891,3.075-5.91,4.045-8.98,2.155c-22.51-13.839-56.823-17.846-83.448-9.765c-3.453,1.043-7.1-0.902-8.148-4.35
	c-1.04-3.453,0.907-7.093,4.354-8.143c30.413-9.228,68.222-4.758,94.072,11.127C133.57,91.167,134.54,95.188,132.65,98.252
	L132.65,98.252z M133.529,74.508C106.54,58.477,62.01,57.003,36.241,64.824c-4.138,1.255-8.514-1.081-9.768-5.219
	c-1.254-4.14,1.08-8.513,5.221-9.771c29.581-8.98,78.756-7.245,109.83,11.202c3.73,2.209,4.951,7.016,2.74,10.733
	c-2.199,3.722-7.02,4.949-10.729,2.739H133.529z"/>
</svg>
