<?xml version="1.0" encoding="utf-8"?>
<!-- Generator: Adobe Illustrator 16.0.0, SVG Export Plug-In . SVG Version: 6.00 Build 0)  -->
<!DOCTYPE svg PUBLIC "-//W3C//DTD SVG 1.1//EN" "http://www.w3.org/Graphics/SVG/1.1/DTD/svg11.dtd">
<svg version="1.1" id="Ebene_1" xmlns="http://www.w3.org/2000/svg" xmlns:xlink="http://www.w3.org/1999/xlink" x="0px" y="0px"
	 width="609.167px" height="721.667px" viewBox="188.333 124.167 609.167 721.667"
	 enable-background="new 188.333 124.167 609.167 721.667" xml:space="preserve">
<path fill="#BCBBBB" d="M703.333,781.667V588.333H767.5v257.5H188.333v-257.5H252.5v193.334H703.333z"/>
<path fill="#F4811E" d="M323.333,570l315,65.833l13.333-63.333l-315-65.833L323.333,570z M365,420l291.666,135.833l26.667-58.333
	L391.666,360.833L365,420L365,420z M445.833,276.667l247.5,205.833l40.833-49.167L486.666,227.5L445.833,276.667L445.833,276.667z
	 M605.833,124.167L554.166,162.5l191.667,258.333L797.5,382.5L605.833,124.167z M316.666,716.667h321.667V652.5H316.666V716.667z"/>
</svg>
