<?xml version="1.0" encoding="utf-8"?>
<!-- Generator: Adobe Illustrator 16.0.0, SVG Export Plug-In . SVG Version: 6.00 Build 0)  -->
<!DOCTYPE svg PUBLIC "-//W3C//DTD SVG 1.1//EN" "http://www.w3.org/Graphics/SVG/1.1/DTD/svg11.dtd">
<svg version="1.1" id="Ebene_1" xmlns="http://www.w3.org/2000/svg" xmlns:xlink="http://www.w3.org/1999/xlink" x="0px" y="0px"
	 width="609.167px" height="721.667px" viewBox="188.333 124.167 609.167 721.667"
	 enable-background="new 188.333 124.167 609.167 721.667" xml:space="preserve">
<path fill="#3F3F3F" d="M703.332,781.667V588.333H767.5v257.5H188.333v-257.5H252.5v193.334H703.332z"/>
<path fill="#E5803C" d="M323.332,570l315,65.834l13.334-63.334l-315-65.832L323.332,570z M365,420l291.666,135.834l26.666-58.334
	L391.666,360.833L365,420L365,420z M445.832,276.667l247.5,205.833l40.834-49.166L486.666,227.5L445.832,276.667L445.832,276.667z
	 M605.832,124.167L554.166,162.5l191.666,258.333L797.5,382.5L605.832,124.167z M316.666,716.667h321.666V652.5H316.666V716.667z"/>
</svg>
