<?xml version="1.0" encoding="utf-8"?>
<!-- Generator: Adobe Illustrator 16.0.0, SVG Export Plug-In . SVG Version: 6.00 Build 0)  -->
<!DOCTYPE svg PUBLIC "-//W3C//DTD SVG 1.1//EN" "http://www.w3.org/Graphics/SVG/1.1/DTD/svg11.dtd">
<svg version="1.1" id="Ebene_1" xmlns="http://www.w3.org/2000/svg" xmlns:xlink="http://www.w3.org/1999/xlink" x="0px" y="0px"
	 width="197.41px" height="189.861px" viewBox="0 0 197.41 189.861" enable-background="new 0 0 197.41 189.861"
	 xml:space="preserve">
<path fill="#005A9B" d="M3.648,80.732c3.381,0.506,45.145,0,45.145,0s-11.33,40.976-11.4,44.689
	c-0.203,6.117,4.559,12.311,15.049,10.945c10.49-1.371,13.227-14.14,13.227-14.14l10.488-41.496c0,0,60.426-0.606,62.93,0
	c2.507,0.607,5.06,0.072,9.888,4.761c2.578,2.477,5.662,6.655,5.159,11.651c-1.362,13.683-16.866,63.388-16.866,63.388
	s-4.185,10.682-4.566,14.596c-0.379,3.914,1.828,12.768,12.773,14.59c10.94,1.828,14.59-14.133,14.59-14.133
	s19.604-57.879,20.52-73.424c0.191-3.22,0.98-12.613-1.836-21.328c-2.605-8.06-5.156-13.734-14.578-18.938
	c-12.252-6.194-80.26-8.979-80.26-8.979S95.533,11.596,95.764,9.592c0.326-1.582-1.365-9.119-12.311-9.576
	c-4.471-0.186-8.926,1.291-11.334,5.449c-1.053,2.191-15.572,49.729-15.572,49.729s-40.82-1.174-44.691-0.911
	C2.852,54.895-4.783,79.469,3.648,80.732z"/>
<circle fill="#005A9B" cx="182.41" cy="41.967" r="15"/>
</svg>
