<?xml version="1.0" encoding="utf-8"?>
<!-- Generator: Adobe Illustrator 16.0.0, SVG Export Plug-In . SVG Version: 6.00 Build 0)  -->
<!DOCTYPE svg PUBLIC "-//W3C//DTD SVG 1.1//EN" "http://www.w3.org/Graphics/SVG/1.1/DTD/svg11.dtd">
<svg version="1.1" id="Ebene_1" xmlns="http://www.w3.org/2000/svg" xmlns:xlink="http://www.w3.org/1999/xlink" x="0px" y="0px"
	 width="197.41px" height="189.862px" viewBox="0 0 197.41 189.862" enable-background="new 0 0 197.41 189.862"
	 xml:space="preserve">
<path fill="#0080C0" d="M3.648,80.732c3.381,0.506,45.145,0,45.145,0s-11.33,40.975-11.4,44.689
	c-0.203,6.117,4.559,12.311,15.049,10.945c10.49-1.371,13.227-14.139,13.227-14.139l10.488-41.496c0,0,60.426-0.607,62.93,0
	c2.506,0.607,5.059,0.072,9.887,4.76c2.578,2.477,5.662,6.656,5.16,11.652c-1.363,13.682-16.867,63.387-16.867,63.387
	s-4.184,10.682-4.566,14.596c-0.379,3.914,1.828,12.768,12.773,14.59c10.941,1.828,14.59-14.133,14.59-14.133
	s19.605-57.879,20.52-73.424c0.191-3.219,0.98-12.613-1.836-21.328c-2.605-8.059-5.156-13.734-14.578-18.938
	c-12.252-6.195-80.26-8.98-80.26-8.98S95.533,11.596,95.764,9.592c0.326-1.582-1.365-9.119-12.311-9.576
	c-4.471-0.186-8.926,1.291-11.334,5.449c-1.053,2.191-15.572,49.73-15.572,49.73s-40.82-1.174-44.691-0.912
	C2.852,54.895-4.783,79.469,3.648,80.732z"/>
<circle fill="#0080C0" cx="182.41" cy="41.967" r="15"/>
</svg>
