<?xml version="1.0" encoding="utf-8"?>
<!-- Generator: Adobe Illustrator 16.0.0, SVG Export Plug-In . SVG Version: 6.00 Build 0)  -->
<!DOCTYPE svg PUBLIC "-//W3C//DTD SVG 1.1//EN" "http://www.w3.org/Graphics/SVG/1.1/DTD/svg11.dtd">
<svg version="1.1"
	 id="Layer_1" xmlns:cc="http://creativecommons.org/ns#" xmlns:svg="http://www.w3.org/2000/svg" xmlns:dc="http://purl.org/dc/elements/1.1/" xmlns:rdf="http://www.w3.org/1999/02/22-rdf-syntax-ns#" xmlns:inkscape="http://www.inkscape.org/namespaces/inkscape" xmlns:sodipodi="http://sodipodi.sourceforge.net/DTD/sodipodi-0.dtd" sodipodi:docname="YouTube_full-color_icon (2017).svg" inkscape:version="0.91 r13725"
	 xmlns="http://www.w3.org/2000/svg" xmlns:xlink="http://www.w3.org/1999/xlink" x="0px" y="0px" width="121.399px" height="85px"
	 viewBox="-24.994 -17.5 121.399 85" enable-background="new -24.994 -17.5 121.399 85" xml:space="preserve">
<sodipodi:namedview  id="namedview29" pagecolor="#ffffff" gridtolerance="10" inkscape:cx="-71.668263" inkscape:zoom="1.3588925" guidetolerance="10" inkscape:cy="39.237696" bordercolor="#666666" borderopacity="1" fit-margin-left="0" objecttolerance="10" showgrid="false" fit-margin-top="0" inkscape:window-maximized="1" inkscape:current-layer="Layer_1" inkscape:window-y="-8" inkscape:pageshadow="2" inkscape:window-height="715" inkscape:pageopacity="0" fit-margin-right="0" inkscape:window-x="-8" fit-margin-bottom="0" inkscape:window-width="1366">
	</sodipodi:namedview>
<g id="g5" transform="scale(0.58823529,0.58823529)">
	<path id="path7" inkscape:connector-curvature="0" fill="#DC3C37" d="M159.637-7.14c-2.376-8.84-9.347-15.81-18.185-18.191
		C125.302-29.75,60.7-29.75,60.7-29.75s-64.6,0-80.75,4.25c-8.67,2.38-15.81,9.52-18.19,18.36C-42.49,9.01-42.49,42.5-42.49,42.5
		s0,33.658,4.251,49.639c2.379,8.842,9.35,15.81,18.19,18.192c16.319,4.419,80.75,4.419,80.75,4.419s64.602,0,80.752-4.25
		c8.839-2.379,15.81-9.35,18.185-18.19c4.252-16.152,4.252-49.64,4.252-49.64S164.06,9.01,159.637-7.14z"/>
	<polygon id="polygon9" fill="#FFFFFF" points="93.85,42.5 40.131,11.56 40.131,73.44 	"/>
</g>
</svg>
